Coordinates
version=1
nRows=38
nColumns=12
inDegrees=yes

Units are S.I. units (second, meters, Newtons, ...)
Angles are in degrees

endheader
time	SC_y	SC_z	SC_x	AC_y	AC_z	AC_x	GH_y	GH_z	GH_yy	EL_x	PS_y
       0.0               -47.4           4.28          71.63          36.54        -0.3252          14.41         -55.38          61.11         -49.48          17.39          152.3
  0.002576               -47.4          4.283          71.63          36.55        -0.3259          14.41         -55.37          61.12         -49.45          17.39          152.3
  0.005152               -47.4          4.286          71.62          36.55        -0.3265          14.41         -55.36          61.12         -49.42           17.4          152.3
  0.007729               -47.4           4.29          71.62          36.55        -0.3272          14.41         -55.34          61.13         -49.38          17.41          152.3
    0.0103               -47.4          4.294          71.61          36.55         -0.328           14.4         -55.33          61.13         -49.34          17.42          152.3
   0.01288               -47.4          4.298          71.61          36.56        -0.3288           14.4         -55.31          61.14          -49.3          17.43          152.3
   0.01546               -47.4          4.302          71.61          36.56        -0.3297           14.4         -55.29          61.14         -49.25          17.44          152.2
   0.01803              -47.41          4.306           71.6          36.57        -0.3306          14.39         -55.27          61.15          -49.2          17.45          152.2
   0.02061              -47.41          4.311           71.6          36.57        -0.3316          14.39         -55.25          61.15         -49.15          17.46          152.2
   0.02319              -47.41          4.317          71.59          36.57        -0.3327          14.39         -55.23          61.16         -49.09          17.48          152.2
   0.02576              -47.41          4.322          71.58          36.58        -0.3339          14.38          -55.2          61.17         -49.03          17.49          152.2
   0.02834              -47.41          4.328          71.58          36.58        -0.3351          14.38         -55.18          61.18         -48.97           17.5          152.1
   0.03091              -47.42          4.335          71.57          36.59        -0.3364          14.37         -55.15          61.18          -48.9          17.52          152.1
   0.03349              -47.42          4.342          71.56           36.6        -0.3379          14.37         -55.12          61.19         -48.82          17.54          152.1
   0.03607              -47.42           4.35          71.55           36.6        -0.3394          14.36         -55.08           61.2         -48.74          17.56          152.0
   0.03864              -47.42          4.358          71.54          36.61        -0.3411          14.35         -55.05          61.21         -48.65          17.58          152.0
   0.04122              -47.43          4.367          71.53          36.62         -0.343          14.35         -55.01          61.23         -48.56           17.6          151.9
    0.0438              -47.43          4.377          71.52          36.63         -0.345          14.34         -54.97          61.24         -48.45          17.62          151.9
   0.04637              -47.43          4.388          71.51          36.63        -0.3471          14.33         -54.92          61.25         -48.34          17.65          151.8
   0.04895              -47.44            4.4           71.5          36.64        -0.3495          14.32         -54.87          61.27         -48.22          17.68          151.8
   0.05152              -47.44          4.413          71.49          36.66        -0.3522          14.31         -54.82          61.29         -48.08          17.71          151.7
    0.0541              -47.45          4.427          71.47          36.67        -0.3551           14.3         -54.76           61.3         -47.93          17.74          151.7
   0.05668              -47.45          4.443          71.45          36.68        -0.3583          14.29         -54.69          61.33         -47.76          17.78          151.6
   0.05925              -47.46           4.46          71.43           36.7        -0.3618          14.27         -54.61          61.35         -47.58          17.82          151.5
   0.06183              -47.46           4.48          71.41          36.71        -0.3657          14.26         -54.53          61.37         -47.37          17.87          151.4
   0.06441              -47.47          4.501          71.39          36.73        -0.3701          14.24         -54.44           61.4         -47.14          17.92          151.3
   0.06698              -47.48          4.525          71.36          36.75         -0.375          14.22         -54.33          61.43         -46.88          17.98          151.2
   0.06956              -47.49          4.553          71.33          36.77        -0.3806           14.2         -54.22          61.47          -46.6          18.05          151.1
   0.07213               -47.5          4.584           71.3           36.8        -0.3868          14.18         -54.09          61.51         -46.27          18.12          151.0
   0.07471              -47.51          4.619          71.26          36.83        -0.3939          14.15         -53.94          61.56          -45.9          18.21          150.8
   0.07729              -47.52          4.659          71.22          36.86         -0.402          14.12         -53.76          61.61         -45.48           18.3          150.6
   0.07986              -47.54          4.704          71.17           36.9        -0.4113          14.09         -53.57          61.67         -44.99          18.41          150.4
   0.08244              -47.55          4.757          71.11          36.95        -0.4221          14.04         -53.34          61.74         -44.43          18.54          150.2
   0.08502              -47.57          4.819          71.04           37.0        -0.4346           14.0         -53.08          61.82         -43.78          18.69          149.9
   0.08759               -47.6          4.891          70.97          37.06        -0.4492          13.94         -52.77          61.91         -43.02          18.86          149.5
   0.09017              -47.63          4.976          70.87          37.13        -0.4664          13.87         -52.41          62.02         -42.12          19.07          149.2
   0.09274              -47.66          5.077          70.76          37.22        -0.4868           13.8         -51.98          62.16         -41.05          19.31          148.7
   0.09532               -47.7          5.198          70.63          37.32        -0.5113           13.7         -51.46          62.31         -39.78           19.6          148.1
